<svg width="16" height="16" viewBox="0 0 16 16" fill="none" xmlns="http://www.w3.org/2000/svg">
<g clip-path="url(#clip0_2417_958)">
<path d="M7.66634 14.5C3.89967 14.5 0.833008 11.4333 0.833008 7.66668C0.833008 3.90001 3.89967 0.833344 7.66634 0.833344C11.433 0.833344 14.4997 3.90001 14.4997 7.66668C14.4997 11.4333 11.433 14.5 7.66634 14.5ZM7.66634 1.83334C4.44634 1.83334 1.83301 4.45334 1.83301 7.66668C1.83301 10.88 4.44634 13.5 7.66634 13.5C10.8863 13.5 13.4997 10.88 13.4997 7.66668C13.4997 4.45334 10.8863 1.83334 7.66634 1.83334Z" fill="#363B3F"/>
<path d="M14.6666 15.1666C14.54 15.1666 14.4133 15.1199 14.3133 15.0199L12.98 13.6866C12.7866 13.4933 12.7866 13.1733 12.98 12.9799C13.1733 12.7866 13.4933 12.7866 13.6866 12.9799L15.02 14.3133C15.2133 14.5066 15.2133 14.8266 15.02 15.0199C14.92 15.1199 14.7933 15.1666 14.6666 15.1666Z" fill="#363B3F"/>
</g>
<defs>
<clipPath id="clip0_2417_958">
<rect width="16" height="16" fill="white"/>
</clipPath>
</defs>
</svg>
