<svg width="16" height="16" viewBox="0 0 16 16" fill="none" xmlns="http://www.w3.org/2000/svg">
<path d="M8 1.4415C10.1361 1.4415 10.3891 1.44963 11.2326 1.48806C12.0126 1.52369 12.4362 1.654 12.7182 1.76356C13.0916 1.90869 13.3581 2.08206 13.638 2.362C13.918 2.64194 14.0913 2.90844 14.2364 3.28181C14.346 3.56375 14.4763 3.98738 14.5119 4.76731C14.5504 5.61094 14.5585 5.86394 14.5585 8C14.5585 10.1361 14.5504 10.3891 14.5119 11.2327C14.4763 12.0127 14.346 12.4362 14.2364 12.7182C14.0913 13.0916 13.9179 13.3581 13.638 13.6381C13.3581 13.918 13.0916 14.0914 12.7182 14.2364C12.4362 14.346 12.0126 14.4764 11.2326 14.5119C10.3892 14.5504 10.1362 14.5586 8 14.5586C5.86375 14.5586 5.61075 14.5504 4.76731 14.5119C3.98731 14.4763 3.56375 14.346 3.28181 14.2364C2.90844 14.0914 2.64188 13.918 2.36194 13.6381C2.082 13.3581 1.90862 13.0916 1.76356 12.7182C1.654 12.4363 1.52363 12.0127 1.48806 11.2327C1.44956 10.3891 1.44144 10.1361 1.44144 8C1.44144 5.86394 1.44956 5.61094 1.48806 4.76737C1.52369 3.98738 1.654 3.56375 1.76356 3.28181C1.90862 2.90844 2.082 2.64194 2.36194 2.362C2.64194 2.082 2.90844 1.90869 3.28181 1.76356C3.56369 1.654 3.98731 1.52369 4.76731 1.48806C5.61088 1.44963 5.86387 1.4415 8 1.4415ZM8 0C5.82731 0 5.55487 0.0091875 4.70162 0.048125C3.85006 0.087 3.2685 0.22225 2.75969 0.42C2.23356 0.624437 1.78744 0.898 1.34269 1.34275C0.897937 1.7875 0.624437 2.23362 0.42 2.75969C0.222187 3.26856 0.087 3.85012 0.048125 4.70162C0.0091875 5.55487 0 5.82731 0 8C0 10.1727 0.0091875 10.4451 0.048125 11.2984C0.087 12.1499 0.222187 12.7315 0.42 13.2403C0.624375 13.7664 0.897937 14.2126 1.34269 14.6573C1.78744 15.1021 2.23356 15.3756 2.75969 15.58C3.26856 15.7778 3.85006 15.913 4.70156 15.9519C5.55487 15.9908 5.82731 16 8 16C10.1727 16 10.4451 15.9908 11.2984 15.9519C12.1499 15.913 12.7314 15.7778 13.2402 15.58C13.7664 15.3756 14.2125 15.1021 14.6573 14.6573C15.102 14.2126 15.3756 13.7664 15.58 13.2403C15.7778 12.7314 15.913 12.1499 15.9519 11.2984C15.9908 10.4451 16 10.1727 16 8C16 5.82731 15.9908 5.55487 15.9519 4.70162C15.913 3.85012 15.7778 3.26856 15.58 2.75975C15.3756 2.23362 15.102 1.7875 14.6573 1.34275C14.2125 0.898 13.7664 0.624375 13.2403 0.42C12.7314 0.22225 12.1499 0.087 11.2984 0.048125C10.4451 0.0091875 10.1727 0 8 0ZM8 3.89188C5.73112 3.89188 3.89188 5.73125 3.89188 8C3.89188 10.2689 5.73112 12.1081 8 12.1081C10.2688 12.1081 12.1081 10.2689 12.1081 8C12.1081 5.73119 10.2688 3.89188 8 3.89188ZM8 10.6667C6.52725 10.6667 5.33331 9.47275 5.33331 8C5.33331 6.52725 6.52725 5.33331 8 5.33331C9.47275 5.33331 10.6667 6.52725 10.6667 8C10.6667 9.47275 9.47275 10.6667 8 10.6667ZM13.2304 3.72956C13.2304 4.25981 12.8006 4.68956 12.2704 4.68956C11.7402 4.68956 11.3104 4.25981 11.3104 3.72956C11.3104 3.19938 11.7402 2.76956 12.2704 2.76956C12.8006 2.76956 13.2304 3.19938 13.2304 3.72956Z" fill="#1A1C1E"/>
</svg>
