<svg width="32" height="33" viewBox="0 0 32 33" fill="none" xmlns="http://www.w3.org/2000/svg">
<mask id="mask0_2086_815" style="mask-type:luminance" maskUnits="userSpaceOnUse" x="0" y="0" width="32" height="33">
<path d="M32 0.5H0V32.5H32V0.5Z" fill="white"/>
</mask>
<g mask="url(#mask0_2086_815)">
<path d="M7.45314 30.8333C5.42647 30.8333 3.57314 29.7933 2.50647 28.0733C1.4398 26.3533 1.34647 24.2333 2.26647 22.4067L4.5598 17.8067C5.30647 16.3133 6.5198 15.38 7.8798 15.2333C9.22647 15.0867 10.5998 15.7533 11.6265 17.06L11.9198 17.4333C12.4931 18.1533 13.1865 18.5267 13.8532 18.4733C14.5198 18.42 15.1332 17.94 15.5732 17.1267L18.0932 12.5799C19.1332 10.6999 20.5465 9.73994 22.0265 9.79328C23.5198 9.87328 24.7998 10.9933 25.6532 12.9666L27.7465 17.8333C27.9598 18.34 27.7332 18.9267 27.2265 19.14C26.7198 19.3533 26.1332 19.1267 25.9198 18.62L23.8265 13.7533C23.3198 12.5533 22.6132 11.8199 21.9465 11.7933C21.2398 11.7533 20.4932 12.4199 19.8665 13.5533L17.3465 18.1C16.5732 19.5 15.3598 20.3667 14.0398 20.4733C12.7198 20.5933 11.3731 19.9267 10.3731 18.6867L10.0798 18.3C9.4798 17.54 8.75979 17.14 8.10647 17.2333C7.42646 17.3 6.81314 17.8333 6.37314 18.7133L4.0798 23.3133C3.4798 24.5 3.53314 25.8867 4.2398 27.0333C4.93314 28.1667 6.14647 28.8467 7.4798 28.8467H18.7865C19.3332 28.8467 19.7865 29.3 19.7865 29.8467C19.7865 30.3933 19.3332 30.8467 18.7865 30.8467L7.45314 30.8333Z" fill="#1A1C1E"/>
<path d="M9.29297 12.1667C6.53297 12.1667 4.29297 9.92666 4.29297 7.16666C4.29297 4.40666 6.53297 2.16666 9.29297 2.16666C12.053 2.16666 14.293 4.40666 14.293 7.16666C14.293 9.92666 12.053 12.1667 9.29297 12.1667ZM9.29297 4.16666C7.63964 4.16666 6.29297 5.51332 6.29297 7.16666C6.29297 8.81999 7.63964 10.1667 9.29297 10.1667C10.9463 10.1667 12.293 8.81999 12.293 7.16666C12.293 5.51332 10.9463 4.16666 9.29297 4.16666Z" fill="#1A1C1E"/>
<path d="M25.7198 31.2601C25.1731 31.2601 24.7065 30.8868 24.5865 30.3534L24.2398 28.8734C24.0798 28.1801 23.5331 27.6334 22.8398 27.4734L21.3465 27.1268C20.8265 27.0201 20.4531 26.5534 20.4531 26.0068C20.4531 25.4601 20.8265 24.9934 21.3598 24.8734L22.8398 24.5268C23.5331 24.3668 24.0798 23.8201 24.2398 23.1268L24.5865 21.6334C24.6931 21.1134 25.1598 20.7401 25.7065 20.7401C26.2531 20.7401 26.7198 21.1134 26.8398 21.6468L27.1865 23.1268C27.3465 23.8201 27.8931 24.3668 28.5865 24.5268L30.0798 24.8734C30.5998 24.9801 30.9731 25.4468 30.9731 26.0068C30.9731 26.5534 30.5998 27.0068 30.0798 27.1268L28.5865 27.4734C27.8931 27.6334 27.3465 28.1801 27.1865 28.8734L26.8398 30.3668C26.7331 30.8868 26.2665 31.2601 25.7198 31.2601ZM24.4531 26.0068C24.9598 26.3268 25.3998 26.7534 25.7198 27.2734C26.0398 26.7668 26.4665 26.3268 26.9865 26.0068C26.4798 25.6868 26.0398 25.2601 25.7198 24.7401C25.3998 25.2468 24.9731 25.6868 24.4531 26.0068Z" fill="#1A1C1E"/>
</g>
</svg>
