<svg width="134" height="20" viewBox="0 0 134 20" fill="none" xmlns="http://www.w3.org/2000/svg">
<path d="M127.946 15.9457C126.762 15.9457 125.717 15.7019 124.811 15.2143C123.919 14.7266 123.223 14.0579 122.721 13.208C122.234 12.3581 121.99 11.3828 121.99 10.2822C121.99 9.18151 122.227 8.20624 122.7 7.35636C123.188 6.50648 123.85 5.84469 124.686 5.37098C125.536 4.88335 126.49 4.63953 127.549 4.63953C128.622 4.63953 129.569 4.87638 130.391 5.35009C131.213 5.82379 131.854 6.49255 132.314 7.35636C132.787 8.20624 133.024 9.20241 133.024 10.3449C133.024 10.4285 133.017 10.526 133.003 10.6375C133.003 10.6821 133.002 10.7256 133 10.768C132.994 10.8733 132.904 10.9509 132.799 10.9509H123.769C123.652 10.9509 123.557 10.856 123.557 10.7389V9.72092C123.557 9.60384 123.652 9.50892 123.769 9.50892H131.307C131.487 9.50892 131.554 9.74498 131.401 9.83925C131.281 9.91322 131.125 9.82481 131.117 9.68387C131.087 9.10421 130.942 8.57916 130.684 8.10871C130.377 7.55141 129.952 7.11951 129.409 6.81299C128.879 6.49255 128.259 6.33232 127.549 6.33232C126.852 6.33232 126.232 6.49255 125.689 6.81299C125.145 7.11951 124.721 7.55838 124.414 8.12961C124.107 8.68691 123.954 9.3278 123.954 10.0523V10.3867C123.954 11.1251 124.121 11.7869 124.456 12.372C124.804 12.9433 125.285 13.3891 125.898 13.7096C126.511 14.03 127.214 14.1902 128.009 14.1902C128.663 14.1902 129.256 14.0788 129.785 13.8559C130.255 13.6629 130.673 13.3864 131.039 13.0265C131.13 12.9369 131.28 12.9387 131.363 13.0358L132.196 14.0105C132.264 14.0899 132.264 14.2073 132.193 14.2839C131.713 14.8029 131.126 15.2035 130.433 15.4859C129.694 15.7925 128.865 15.9457 127.946 15.9457Z" fill="#1A1C1E"/>
<path d="M114.641 15.9457C113.694 15.9457 112.837 15.7367 112.071 15.3187C111.318 14.8868 110.719 14.2529 110.273 13.4169C109.841 12.581 109.625 11.5361 109.625 10.2821C109.625 9.02821 109.848 7.98327 110.294 7.14733C110.754 6.31138 111.36 5.68442 112.112 5.26645C112.879 4.84847 113.722 4.63949 114.641 4.63949C115.728 4.63949 116.689 4.87634 117.525 5.35004C118.361 5.82374 119.023 6.48554 119.51 7.33541C119.998 8.17136 120.242 9.1536 120.242 10.2821C120.242 11.4107 119.998 12.3999 119.51 13.2497C119.023 14.0996 118.361 14.7614 117.525 15.2351C116.689 15.7088 115.728 15.9457 114.641 15.9457ZM108.981 15.8203C108.863 15.8203 108.769 15.7254 108.769 15.6083V0.525455C108.769 0.408372 108.863 0.313457 108.981 0.313457H110.563C110.68 0.313457 110.775 0.408372 110.775 0.525455V7.69069L110.566 10.2612L110.691 12.8318V15.6083C110.691 15.7254 110.596 15.8203 110.479 15.8203H108.981ZM114.474 14.1902C115.184 14.1902 115.818 14.03 116.376 13.7095C116.947 13.3891 117.393 12.9363 117.713 12.3511C118.048 11.752 118.215 11.0623 118.215 10.2821C118.215 9.48798 118.048 8.80529 117.713 8.23406C117.393 7.6489 116.947 7.19609 116.376 6.87564C115.818 6.5552 115.184 6.39497 114.474 6.39497C113.777 6.39497 113.143 6.5552 112.572 6.87564C112.015 7.19609 111.569 7.6489 111.235 8.23406C110.914 8.80529 110.754 9.48798 110.754 10.2821C110.754 11.0623 110.914 11.752 111.235 12.3511C111.569 12.9363 112.015 13.3891 112.572 13.7095C113.143 14.03 113.777 14.1902 114.474 14.1902Z" fill="#1A1C1E"/>
<path d="M103.143 15.8203C103.026 15.8203 102.931 15.7254 102.931 15.6083V4.95602C102.931 4.83894 103.026 4.74402 103.143 4.74402H104.726C104.843 4.74402 104.938 4.83894 104.938 4.95602V15.6083C104.938 15.7254 104.843 15.8203 104.726 15.8203H103.143ZM103.935 2.61236C103.544 2.61236 103.217 2.48697 102.952 2.23618C102.702 1.9854 102.576 1.67888 102.576 1.31664C102.576 0.940464 102.702 0.626984 102.952 0.376199C103.217 0.125415 103.544 2.28882e-05 103.935 2.28882e-05C104.325 2.28882e-05 104.645 0.125415 104.896 0.376199C105.161 0.613051 105.293 0.912598 105.293 1.27484C105.293 1.65102 105.168 1.97146 104.917 2.23618C104.666 2.48697 104.339 2.61236 103.935 2.61236Z" fill="#1A1C1E"/>
<path d="M94.3011 15.8203C94.2169 15.8203 94.1406 15.7704 94.1069 15.6933L89.444 5.04099C89.3827 4.90092 89.4853 4.74398 89.6382 4.74398H91.2641C91.3489 4.74398 91.4255 4.79447 91.4589 4.87237L95.5821 14.4797C95.6421 14.6196 95.5395 14.7753 95.3873 14.7753H95.03C94.8771 14.7753 94.7745 14.6184 94.8358 14.4784L99.039 4.871C99.0727 4.79384 99.149 4.74398 99.2332 4.74398H100.735C100.888 4.74398 100.99 4.90092 100.929 5.04099L96.2661 15.6933C96.2323 15.7704 96.1561 15.8203 96.0719 15.8203H94.3011Z" fill="#1A1C1E"/>
<path d="M82.5919 15.8203C82.4748 15.8203 82.3799 15.7254 82.3799 15.6083V4.95602C82.3799 4.83894 82.4748 4.74402 82.5919 4.74402H84.0906C84.2076 4.74402 84.3026 4.83894 84.3026 4.95602V7.00762C84.3026 7.11589 84.1479 7.13492 84.1217 7.02988C84.117 7.01116 84.1183 6.99137 84.1256 6.9735C84.4334 6.22074 84.9452 5.64477 85.661 5.24559C86.3366 4.86881 87.1576 4.66771 88.124 4.64229C88.241 4.63921 88.336 4.73444 88.336 4.85153V6.33285C88.336 6.46385 88.2162 6.56221 88.0852 6.56221C88.0156 6.56221 87.9459 6.56221 87.8762 6.56221C86.8034 6.56221 85.9536 6.88266 85.3266 7.52355C84.6996 8.16444 84.3862 9.09095 84.3862 10.3031V15.6083C84.3862 15.7254 84.2912 15.8203 84.1742 15.8203H82.5919Z" fill="#1A1C1E"/>
<path d="M74.5157 15.9457C73.3314 15.9457 72.2865 15.7019 71.3809 15.2143C70.4892 14.7266 69.7926 14.0579 69.291 13.208C68.8034 12.3581 68.5596 11.3828 68.5596 10.2822C68.5596 9.18151 68.7964 8.20624 69.2701 7.35636C69.7578 6.50648 70.4196 5.84469 71.2555 5.37098C72.1054 4.88335 73.0598 4.63953 74.1186 4.63953C75.1914 4.63953 76.1388 4.87638 76.9608 5.35009C77.7829 5.82379 78.4237 6.49255 78.8835 7.35636C79.3572 8.20624 79.5941 9.20241 79.5941 10.3449C79.5941 10.4285 79.5871 10.526 79.5732 10.6375C79.5732 10.6821 79.5721 10.7256 79.5698 10.768C79.5643 10.8733 79.4739 10.9509 79.3684 10.9509H70.339C70.2219 10.9509 70.127 10.856 70.127 10.7389V9.72092C70.127 9.60384 70.2219 9.50892 70.339 9.50892H77.8771C78.0569 9.50892 78.1238 9.74498 77.9706 9.83925C77.8504 9.91322 77.6945 9.82481 77.6871 9.68387C77.6567 9.10421 77.5122 8.57916 77.2534 8.10871C76.9469 7.55141 76.522 7.11951 75.9786 6.81299C75.4492 6.49255 74.8292 6.33232 74.1186 6.33232C73.422 6.33232 72.802 6.49255 72.2586 6.81299C71.7153 7.11951 71.2903 7.55838 70.9838 8.12961C70.6773 8.68691 70.524 9.3278 70.524 10.0523V10.3867C70.524 11.1251 70.6912 11.7869 71.0256 12.372C71.3739 12.9433 71.8546 13.3891 72.4676 13.7096C73.0807 14.03 73.7842 14.1902 74.5784 14.1902C75.2332 14.1902 75.8253 14.0788 76.3548 13.8559C76.8251 13.6629 77.2432 13.3864 77.6092 13.0265C77.7002 12.9369 77.8494 12.9387 77.9324 13.0358L78.7656 14.0105C78.8335 14.0899 78.8338 14.2073 78.7628 14.2839C78.2825 14.8029 77.6958 15.2035 77.0026 15.4859C76.2642 15.7925 75.4352 15.9457 74.5157 15.9457Z" fill="#1A1C1E"/>
<path d="M58.6962 20C58.1668 20 57.6513 19.9095 57.1497 19.7283C56.7053 19.5802 56.3156 19.3665 55.9806 19.0871C55.9049 19.0239 55.8886 18.9153 55.9374 18.8296L56.5769 17.7065C56.645 17.5869 56.8072 17.5633 56.9145 17.6496C57.1369 17.8286 57.3756 17.9712 57.6304 18.0773C57.9648 18.2167 58.32 18.2863 58.6962 18.2863C59.1839 18.2863 59.5879 18.1609 59.9083 17.9101C60.2288 17.6594 60.5283 17.2135 60.807 16.5726L61.4848 15.0733C61.4927 15.0559 61.5029 15.0396 61.5151 15.0249L61.6861 14.8197C61.699 14.8042 61.7097 14.7868 61.7178 14.7682L65.9973 4.87183C66.0308 4.79422 66.1073 4.74398 66.1919 4.74398H67.6919C67.845 4.74398 67.9477 4.90136 67.8859 5.04149L62.6461 16.9279C62.3256 17.7081 61.9634 18.3212 61.5593 18.767C61.1692 19.2128 60.7373 19.5263 60.2636 19.7074C59.7899 19.9025 59.2675 20 58.6962 20ZM61.5482 15.9192C61.4469 16.0379 61.2563 16.0101 61.1931 15.8673L56.4037 5.04175C56.3417 4.90159 56.4443 4.74398 56.5976 4.74398H58.2231C58.3074 4.74398 58.3836 4.79392 58.4174 4.87117L62.6139 14.4866C62.6464 14.561 62.6336 14.6473 62.5809 14.709L61.5482 15.9192Z" fill="#1A1C1E"/>
<path d="M53.0173 15.8203C52.9002 15.8203 52.8053 15.7254 52.8053 15.6083V13.5046C52.8053 13.488 52.8033 13.4715 52.7995 13.4555L52.7065 13.065C52.7027 13.0489 52.7008 13.0324 52.7008 13.0159V9.04915C52.7008 8.19927 52.45 7.54445 51.9484 7.08468C51.4608 6.61097 50.7224 6.37412 49.7332 6.37412C49.0783 6.37412 48.4374 6.48558 47.8105 6.7085C47.278 6.88598 46.8159 7.11873 46.4242 7.40674C46.3168 7.48565 46.1621 7.45725 46.0974 7.34081L45.473 6.21676C45.4229 6.12655 45.4447 6.01299 45.5273 5.95109C46.0688 5.54517 46.7045 5.23337 47.4343 5.01571C48.2424 4.76492 49.0853 4.63953 49.963 4.63953C51.4817 4.63953 52.652 5.00874 53.474 5.74716C54.296 6.48558 54.707 7.61411 54.707 9.13275V15.6083C54.707 15.7254 54.6121 15.8203 54.4951 15.8203H53.0173ZM49.1689 15.9457C48.3469 15.9457 47.6224 15.8064 46.9954 15.5277C46.3824 15.2491 45.9087 14.866 45.5743 14.3783C45.2399 13.8767 45.0728 13.3125 45.0728 12.6855C45.0728 12.0864 45.2121 11.5431 45.4907 11.0554C45.7833 10.5678 46.25 10.1777 46.8909 9.8851C47.5458 9.59252 48.4235 9.44623 49.5242 9.44623H52.8232C52.9402 9.44623 53.0352 9.54114 53.0352 9.65823V10.6762C53.0352 10.7933 52.9402 10.8882 52.8232 10.8882H49.6078C48.6046 10.8882 47.9289 11.0554 47.5806 11.3898C47.2323 11.7242 47.0581 12.1282 47.0581 12.6019C47.0581 13.1453 47.2741 13.5842 47.706 13.9185C48.1379 14.239 48.737 14.3992 49.5033 14.3992C50.2556 14.3992 50.9105 14.232 51.4678 13.8976C52.039 13.5633 52.45 13.0756 52.7008 12.4347L53.0776 13.7438C53.0907 13.7893 53.0884 13.838 53.0696 13.8816C52.8006 14.5049 52.3433 15.0048 51.6976 15.3815C51.0289 15.7576 50.186 15.9457 49.1689 15.9457Z" fill="#1A1C1E"/>
<path d="M34.8735 15.8203C34.288 15.8203 33.8135 15.3458 33.8135 14.7603V1.40324C33.8135 1.28616 33.9084 1.19125 34.0255 1.19125H35.6913C35.8084 1.19125 35.9033 1.28616 35.9033 1.40324V13.5781C35.9033 13.8123 36.0932 14.0021 36.3273 14.0021H43.8239V15.8203H34.8735Z" fill="#1A1C1E"/>
<circle cx="19.4623" cy="8.50641" r="7.31391" fill="url(#paint0_linear_100_1882)" fill-opacity="0.5"/>
<circle cx="7.31391" cy="8.5064" r="7.31391" fill="#C7EB00"/>
<circle cx="13.3881" cy="8.50641" r="7.31391" fill="url(#paint1_linear_100_1882)"/>
<defs>
<linearGradient id="paint0_linear_100_1882" x1="26.7763" y1="8.50641" x2="16.6731" y2="8.50641" gradientUnits="userSpaceOnUse">
<stop stop-color="#DFFF19"/>
<stop offset="1" stop-color="#DFFF19" stop-opacity="0"/>
</linearGradient>
<linearGradient id="paint1_linear_100_1882" x1="18.5327" y1="8.50641" x2="10.1031" y2="8.50641" gradientUnits="userSpaceOnUse">
<stop stop-color="#DFFF19"/>
<stop offset="0.85" stop-color="#DFFF19" stop-opacity="0"/>
</linearGradient>
</defs>
</svg>
