<svg width="25" height="24" viewBox="0 0 25 24" fill="none" xmlns="http://www.w3.org/2000/svg">
<g clip-path="url(#clip0_2350_716)">
<mask id="mask0_2350_716" style="mask-type:luminance" maskUnits="userSpaceOnUse" x="0" y="0" width="25" height="24">
<path d="M24.334 0H0.333984V24H24.334V0Z" fill="white"/>
</mask>
<g mask="url(#mask0_2350_716)">
<path d="M22.3343 5.70951V15.2895C22.3343 18.0495 20.0943 20.2895 17.3343 20.2895H7.3343C6.8743 20.2895 6.4343 20.2295 6.0043 20.1095C5.3843 19.9395 5.1843 19.1495 5.6443 18.6895L16.2743 8.05951C16.4943 7.83951 16.8243 7.78951 17.1343 7.84951C17.4543 7.90951 17.8043 7.81951 18.0543 7.57951L20.6243 4.99951C21.5643 4.05951 22.3343 4.36951 22.3343 5.70951Z" fill="#363B3F"/>
<path opacity="0.4" d="M14.974 7.35953L4.50398 17.8295C4.02398 18.3095 3.22398 18.1895 2.90398 17.5895C2.53398 16.9095 2.33398 16.1195 2.33398 15.2895V5.70953C2.33398 4.36953 3.10398 4.05953 4.04398 4.99953L6.62398 7.58953C7.01398 7.96953 7.65398 7.96953 8.04398 7.58953L11.624 3.99953C12.014 3.60953 12.654 3.60953 13.044 3.99953L14.984 5.93953C15.364 6.32953 15.364 6.96953 14.974 7.35953Z" fill="#5E686E"/>
</g>
</g>
<defs>
<clipPath id="clip0_2350_716">
<rect width="24" height="24" fill="white" transform="translate(0.333984)"/>
</clipPath>
</defs>
</svg>
