<svg width="25" height="24" viewBox="0 0 25 24" fill="none" xmlns="http://www.w3.org/2000/svg">
<mask id="mask0_2350_659" style="mask-type:luminance" maskUnits="userSpaceOnUse" x="0" y="0" width="25" height="24">
<path d="M24.6665 0H0.666504V24H24.6665V0Z" fill="white"/>
</mask>
<g mask="url(#mask0_2350_659)">
<path d="M12.6465 12C15.4065 12 17.6465 9.76 17.6465 7C17.6465 4.24 15.4165 2 12.6465 2C9.87648 2 7.64648 4.24 7.64648 7C7.64648 9.76 9.88648 12 12.6465 12Z" fill="#363B3F"/>
<path opacity="0.4" d="M20.0064 19.49C19.8464 20.08 19.3464 20.46 18.7364 20.46C18.1264 20.46 17.6264 20.08 17.4664 19.48L17.2064 18.51C17.0664 18.01 16.6864 17.63 16.1864 17.49L15.2064 17.22C14.6364 17.06 14.2464 16.56 14.2464 15.95C14.2464 15.65 14.3364 15.38 14.4964 15.17C13.8964 15.06 13.2864 15 12.6464 15C8.37645 15 4.83645 17.54 4.16645 20.86C4.04645 21.45 4.52645 22 5.13645 22H20.1564C20.7564 22 21.2364 21.45 21.1264 20.86C20.9764 20.09 20.6564 19.36 20.2164 18.69L20.0064 19.499V19.49Z" fill="#363B3F"/>
<path d="M22.2463 15.9699C22.2463 16.0399 22.2063 16.1999 22.0163 16.2599L21.0363 16.5299C20.1863 16.7599 19.5463 17.3999 19.3163 18.2499L19.0563 19.2099C18.9963 19.4299 18.8263 19.4499 18.7463 19.4499C18.6663 19.4499 18.4963 19.4299 18.4363 19.2099L18.1763 18.2399C17.9463 17.3999 17.2963 16.7599 16.4563 16.5299L15.4863 16.2699C15.2763 16.2099 15.2563 16.0299 15.2563 15.9599C15.2563 15.8799 15.2763 15.6999 15.4863 15.6399L16.4663 15.3799C17.3063 15.1399 17.9463 14.4999 18.1763 13.6599L18.4563 12.6399C18.5263 12.4699 18.6863 12.4399 18.7463 12.4399C18.8063 12.4399 18.9763 12.4599 19.0363 12.6199L19.3163 13.6499C19.5463 14.4899 20.1963 15.1299 21.0363 15.3699L22.0363 15.6499C22.2363 15.7299 22.2463 15.9099 22.2463 15.9699Z" fill="#363B3F"/>
</g>
</svg>
