<svg width="20" height="20" viewBox="0 0 20 20" fill="none" xmlns="http://www.w3.org/2000/svg">
<g clip-path="url(#clip0_2350_626)">
<mask id="mask0_2350_626" style="mask-type:luminance" maskUnits="userSpaceOnUse" x="0" y="0" width="20" height="20">
<path d="M20 0H0V20H20V0Z" fill="white"/>
</mask>
<g mask="url(#mask0_2350_626)">
<path d="M12.4998 18.9582H7.49984C2.97484 18.9582 1.0415 17.0248 1.0415 12.4998V7.49984C1.0415 2.97484 2.97484 1.0415 7.49984 1.0415H12.4998C17.0248 1.0415 18.9582 2.97484 18.9582 7.49984V12.4998C18.9582 17.0248 17.0248 18.9582 12.4998 18.9582ZM7.49984 2.2915C3.65817 2.2915 2.2915 3.65817 2.2915 7.49984V12.4998C2.2915 16.3415 3.65817 17.7082 7.49984 17.7082H12.4998C16.3415 17.7082 17.7082 16.3415 17.7082 12.4998V7.49984C17.7082 3.65817 16.3415 2.2915 12.4998 2.2915H7.49984Z" fill="#292C2E"/>
<path d="M8.81618 12.9827C8.64951 12.9827 8.49118 12.916 8.37451 12.7993L6.01621 10.441C5.77454 10.1993 5.77454 9.79934 6.01621 9.55767C6.25788 9.31601 6.65788 9.31601 6.89954 9.55767L8.81618 11.4743L13.0995 7.19102C13.3412 6.94935 13.7412 6.94935 13.9828 7.19102C14.2245 7.43268 14.2245 7.83268 13.9828 8.07435L9.25784 12.7993C9.14118 12.916 8.98284 12.9827 8.81618 12.9827Z" fill="#292C2E"/>
</g>
</g>
<defs>
<clipPath id="clip0_2350_626">
<rect width="20" height="20" fill="white"/>
</clipPath>
</defs>
</svg>
