<svg width="18" height="18" viewBox="0 0 18 18" fill="none" xmlns="http://www.w3.org/2000/svg">
<mask id="mask0_143_2699" style="mask-type:luminance" maskUnits="userSpaceOnUse" x="0" y="0" width="18" height="18">
<path d="M18 0H0V18H18V0Z" fill="white"/>
</mask>
<g mask="url(#mask0_143_2699)">
<path d="M13.1175 7.19974L4.2 12.5772C3.675 12.8922 3 12.5172 3 11.9022V5.90224C3 3.28474 5.8275 1.64974 8.1 2.95474L11.5425 4.93474L13.11 5.83474C13.6275 6.14224 13.635 6.89224 13.1175 7.19974Z" fill="#363B3F"/>
<path d="M13.5676 11.5947L10.5301 13.3497L7.50014 15.0972C6.4126 15.7197 5.1826 15.5922 4.2901 14.9622C3.8551 14.6622 3.90761 13.9947 4.36511 13.7247L13.8976 8.00974C14.3476 7.73974 14.9401 7.99474 15.0226 8.51224C15.2101 9.67474 14.7301 10.9272 13.5676 11.5947Z" fill="#363B3F"/>
</g>
</svg>
