<svg width="20" height="20" viewBox="0 0 20 20" fill="none" xmlns="http://www.w3.org/2000/svg">
<g clip-path="url(#clip0_2350_777)">
<mask id="mask0_2350_777" style="mask-type:luminance" maskUnits="userSpaceOnUse" x="0" y="0" width="20" height="20">
<path d="M20 0H0V20H20V0Z" fill="white"/>
</mask>
<g mask="url(#mask0_2350_777)">
<path d="M4.65852 18.958C3.39185 18.958 2.23352 18.308 1.56685 17.233C0.900183 16.158 0.841849 14.833 1.41685 13.6913L2.85018 10.8163C3.31685 9.88299 4.07518 9.29966 4.92518 9.20799C5.76685 9.11632 6.62518 9.53299 7.26685 10.3497L7.45017 10.583C7.80852 11.033 8.24185 11.2663 8.65853 11.233C9.0752 11.1997 9.45853 10.8997 9.73353 10.3913L11.3085 7.54962C11.9585 6.37462 12.8419 5.77462 13.7669 5.80796C14.7002 5.85796 15.5002 6.55796 16.0335 7.79129L17.3419 10.833C17.4752 11.1497 17.3335 11.5163 17.0169 11.6497C16.7002 11.783 16.3335 11.6413 16.2002 11.3247L14.8919 8.28296C14.5752 7.53296 14.1335 7.07462 13.7169 7.05796C13.2752 7.03296 12.8085 7.44962 12.4169 8.15796L10.8419 10.9997C10.3585 11.8747 9.6002 12.4163 8.7752 12.483C7.95018 12.558 7.10852 12.1413 6.48352 11.3663L6.30018 11.1247C5.92518 10.6497 5.47517 10.3997 5.06685 10.458C4.64184 10.4997 4.25852 10.833 3.98352 11.383L2.55018 14.258C2.17518 14.9997 2.20852 15.8663 2.65018 16.583C3.08352 17.2913 3.84185 17.7163 4.67518 17.7163H11.7419C12.0835 17.7163 12.3669 17.9997 12.3669 18.3413C12.3669 18.683 12.0835 18.9663 11.7419 18.9663L4.65852 18.958Z" fill="#131416"/>
<path d="M5.80859 7.2915C4.08359 7.2915 2.68359 5.8915 2.68359 4.1665C2.68359 2.4415 4.08359 1.0415 5.80859 1.0415C7.53359 1.0415 8.93362 2.4415 8.93362 4.1665C8.93362 5.8915 7.53359 7.2915 5.80859 7.2915ZM5.80859 2.2915C4.77526 2.2915 3.93359 3.13317 3.93359 4.1665C3.93359 5.19984 4.77526 6.0415 5.80859 6.0415C6.84193 6.0415 7.68359 5.19984 7.68359 4.1665C7.68359 3.13317 6.84193 2.2915 5.80859 2.2915Z" fill="#131416"/>
<path d="M16.0754 19.2249C15.7337 19.2249 15.442 18.9916 15.367 18.6582L15.1504 17.7332C15.0504 17.2999 14.7087 16.9582 14.2754 16.8582L13.342 16.6416C13.017 16.5749 12.7837 16.2832 12.7837 15.9416C12.7837 15.5999 13.017 15.3082 13.3504 15.2332L14.2754 15.0166C14.7087 14.9166 15.0504 14.5749 15.1504 14.1416L15.367 13.2082C15.4337 12.8832 15.7254 12.6499 16.067 12.6499C16.4087 12.6499 16.7004 12.8832 16.7754 13.2166L16.992 14.1416C17.092 14.5749 17.4337 14.9166 17.867 15.0166L18.8004 15.2332C19.1254 15.2999 19.3587 15.5916 19.3587 15.9416C19.3587 16.2832 19.1254 16.5666 18.8004 16.6416L17.867 16.8582C17.4337 16.9582 17.092 17.2999 16.992 17.7332L16.7754 18.6666C16.7087 18.9916 16.417 19.2249 16.0754 19.2249ZM15.2837 15.9416C15.6004 16.1416 15.8754 16.4082 16.0754 16.7332C16.2754 16.4166 16.542 16.1416 16.867 15.9416C16.5504 15.7416 16.2754 15.4749 16.0754 15.1499C15.8754 15.4666 15.6087 15.7416 15.2837 15.9416Z" fill="#131416"/>
</g>
</g>
<defs>
<clipPath id="clip0_2350_777">
<rect width="20" height="20" fill="white"/>
</clipPath>
</defs>
</svg>
