<svg width="20" height="20" viewBox="0 0 20 20" fill="none" xmlns="http://www.w3.org/2000/svg">
<g clip-path="url(#clip0_2350_789)">
<mask id="mask0_2350_789" style="mask-type:luminance" maskUnits="userSpaceOnUse" x="0" y="0" width="20" height="20">
<path d="M20 0H0V20H20V0Z" fill="white"/>
</mask>
<g mask="url(#mask0_2350_789)">
<path d="M8.32515 18.959C8.15848 18.959 8.02515 18.9257 7.92515 18.884C7.59181 18.759 7.02515 18.3507 7.02515 17.059V11.684H5.07515C3.95848 11.684 3.55848 11.159 3.41681 10.8507C3.27515 10.534 3.15015 9.89233 3.88348 9.05066L10.1918 1.88401C11.0418 0.917343 11.7335 0.98401 12.0668 1.10901C12.4002 1.23401 12.9668 1.64234 12.9668 2.93401V8.30901H14.9168C16.0335 8.30901 16.4335 8.83399 16.5752 9.14233C16.7168 9.45899 16.8418 10.1007 16.1085 10.9423L9.80016 18.109C9.2085 18.784 8.69183 18.959 8.32515 18.959ZM11.6085 2.28401C11.5835 2.31734 11.4085 2.40068 11.1335 2.71734L4.82515 9.88399C4.59181 10.1507 4.55848 10.3173 4.55848 10.3507C4.57515 10.359 4.72515 10.4423 5.07515 10.4423H7.65015C7.99181 10.4423 8.27515 10.7257 8.27515 11.0673V17.0673C8.27515 17.484 8.35016 17.6673 8.3835 17.7173C8.4085 17.684 8.5835 17.6007 8.8585 17.284L15.1668 10.1173C15.4002 9.85066 15.4335 9.68399 15.4335 9.65066C15.4168 9.64233 15.2668 9.55899 14.9168 9.55899H12.3418C12.0002 9.55899 11.7168 9.27566 11.7168 8.93399V2.93401C11.7252 2.51734 11.6418 2.34234 11.6085 2.28401Z" fill="#0C0D0E"/>
</g>
</g>
<defs>
<clipPath id="clip0_2350_789">
<rect width="20" height="20" fill="white"/>
</clipPath>
</defs>
</svg>
